<?xml version="1.0" encoding="UTF-8"?>
<svg id="Layer_2" data-name="Layer 2" xmlns="http://www.w3.org/2000/svg" viewBox="0 0 776.54 215.12">
  <defs>
    <style>
      .cls-1 {
        fill: #230672;
        stroke: #230672;
        stroke-miterlimit: 10;
        stroke-width: 3px;
      }
    </style>
  </defs>
  <g id="Layer_1-2" data-name="Layer 1">
    <g>
      <path class="cls-1" d="m659.04,144.92c.94.17,1.76.25,2.48.23.48-.02.91-.08,1.3-.19.39-.11.73-.26,1.03-.46.3-.2.56-.45.77-.74.11-.15.21-.31.3-.48.18-.34.32-.73.42-1.18.1-.44.17-.93.2-1.47.01-.27.02-.55.02-.85,0-.3-.01-.6-.03-.93-.05-.85-.09-1.7-.11-2.56-.08-2.56-.08-5.12-.05-7.69.02-1.71.05-3.42.08-5.13.03-1.71.05-3.42.05-5.13.01-9.59,0-19.17,0-28.62,2.16-.32,4.22-.54,6.19-.65,2.95-.17,5.69-.1,8.26.21,2.57.32,4.97.89,7.25,1.73,1.52.56,2.97,1.24,4.39,2.04,2.12,1.2,4.14,2.68,6.09,4.46,1.95,1.77,3.85,3.84,5.72,6.22,1.6,2.03,3.07,4.19,4.45,6.4.69,1.11,1.35,2.23,2,3.37.64,1.13,1.27,2.28,1.87,3.43.42.8.83,1.6,1.22,2.41,1.19,2.43,2.29,4.91,3.41,7.37.74,1.64,1.5,3.29,2.28,4.9.79,1.62,1.62,3.22,2.51,4.77,1.49,2.6,2.73,4.66,3.9,6.28.7.97,1.38,1.78,2.07,2.45.57.55,1.16,1,1.78,1.37.2.12.4.23.6.33.21.1.42.2.64.28.14.06.29.11.44.16.51.17,1.04.3,1.62.4.29.05.59.09.9.12.73.07,1.52.09,2.38.07.86-.02,1.8-.08,2.83-.18,1.04-.1,2.18-.23,3.42-.38.41-.05.84-.11,1.28-.17.44-.06.89-.12,1.35-.18-.55-.83-1.12-1.66-1.7-2.5-1.16-1.67-2.36-3.35-3.57-5.05-.6-.85-1.21-1.71-1.8-2.57-1.57-2.27-3.09-4.6-4.49-7-.36-.63-.72-1.25-1.07-1.89s-.68-1.27-1-1.92c-1.29-2.62-2.5-5.29-3.7-7.95-.8-1.78-1.61-3.56-2.44-5.32-1.66-3.53-3.41-7-5.45-10.31-1.15-1.86-2.39-3.67-3.75-5.4-.45-.58-.92-1.15-1.41-1.71-.65-.75-1.32-1.48-2.02-2.2-2.11-2.15-4.48-4.14-7.21-5.93h0c.77-.35,1.43-.65,2.03-.93.14-.06.28-.13.41-.19.57-.26,1.08-.49,1.57-.72.36-.17.7-.33,1.05-.49,1.71-.82,3.32-1.76,4.83-2.82.75-.53,1.48-1.09,2.18-1.67,1.4-1.17,2.7-2.46,3.89-3.84,1.19-1.38,2.27-2.87,3.23-4.45,1.08-1.77,2.02-3.67,2.81-5.66,2.36-5.98,3.34-12.89,2.78-20.35-.37-4.89-1.82-9.7-4.1-14.07-.32-.62-.67-1.24-1.02-1.85-.41-.69-.84-1.37-1.29-2.04-4.62-6.84-11.32-12.13-18.88-14.19-2.14-.58-4.29-1.05-6.45-1.42-2.15-.37-4.31-.64-6.48-.84-3.25-.3-6.51-.42-9.78-.46-1.09-.01-2.18-.01-3.28,0-1.09,0-2.19.02-3.28.04-4.38.07-8.79.22-13.22.26-1.66.02-3.32.02-4.99,0-1.67-.02-3.34-.07-5.01-.15v132.7c.64.08,1.27.14,1.9.2,1.87.19,3.66.35,5.42.68Zm5.91-122.26c11.33.6,20.63.36,29.69,1.76,13.38,2.06,21.67,13.49,21.09,27.36-.54,13.04-9.15,22.19-22.82,23.6-7.77.8-15.62.82-23.44,1.23-2.83.15-4.58-.56-4.56-3.93.08-16.24.04-32.48.04-50.01Z"/>
      <path class="cls-1" d="m768.51,54.14c-1.93.01-4.47.33-7.8.81-.35.05-.65.4-1.26.79-.08,1.18-.23,2.56-.25,3.93-.36,37-.75,74-1.03,111-.09,11.91-.05,14.52,7.8,14.55,2.2,0,5-.18,8.59-.43.18-2.52.47-4.69.46-6.85-.08-37-.16-74.01-.31-111.01-.04-10.03-.41-12.81-6.21-12.78Z"/>
      <path class="cls-1" d="m744.6,173.94s-.04,0-.06,0c-21.57.02-42.8.35-64-.1-19.82-.42-38.15-5.21-53.06-18.3-1.76-1.54-3.48-3.17-5.14-4.95-5.76-6.18-11.63-12.26-17.23-18.57-7.55-8.51-15.07-17.06-23.8-24.13-5.81-4.7-12.15-8.76-19.42-11.69-.13-.05-.19-.29-.29-.72-.03-.14-.04-.28-.05-.43-.03-.61.15-1.21.55-1.69,20.87-24.92,42-50.15,63.75-76.12,1.13-1.35.49-3.3-1-3.86-.25-.09-.51-.16-.8-.17-2.84-.09-5.4-.14-7.88.27-2.86.47-6.26,1.71-8.08,3.78-16.21,18.43-32.13,37.12-48.11,55.75-5.66,6.6-11.26,13.26-16.88,19.9-.32.38-.83.55-1.32.44,0,0-.01,0-.02,0-.61-.14-1.05-.68-1.05-1.31l-.02-1.32-1.19-76.11s-.34-.87-1.29-.92c-.05,0-.1-.01-.16,0l-15.54-.19-7.17-.09h-226.86c-.21,0-.69.43-1.1.87-.35.39-.64.79-.64.94,0,4.68,0,9.49.01,14.39,0,7.61.01,15.43-.03,23.24-.16,31.97-.21,63.93-.64,95.9-.17,12.43-9.92,22.83-21.35,23.86-9.63.87-16.75-1.04-21.65-5.89-4.47-3.12-7.51-8.09-9.21-15.02-.63-2.57-1.07-5.2-1.56-7.88h-11.66c-1.4,0-2.51,1.18-2.43,2.59.18,3.32.24,6.35.88,9.26,2.11,9.57,6.39,17.13,12.31,22.58,9.82,9.03,24.15,12.23,40.57,9.06,13.98-2.7,26.03-12.2,29.05-26.59,2.37-11.31,2.18-22.18,2.33-33.71.4-31.64-.03-63.29-.18-94.94,0-1.35,1.09-2.45,2.44-2.45h15.64c1.35,0,2.44,1.09,2.44,2.44.03,36.28.08,72.56-.01,108.84,0,1.37.17,2.39.53,3.15.82,1.76,2.59,2.12,5.33,2.1,25.08-.13,50.15,0,75.23-.09,13.41-.04,13.83,2.73,13.25-13.91,0-.1-.03-.19-.08-.3-.38-.82-1.25-1.3-2.16-1.3h-73.08c-1.23,0-2.23-.91-2.4-2.08-.02-.12-.04-.24-.04-.36v-37.15c0-1.35,1.1-2.44,2.45-2.44,15.08,0,30.06.06,45.04-.02,12.28-.07,13.67,2.82,12.14-13.03-.02-.16-.12-.32-.31-.56-.54-.7-1.38-1.1-2.27-1.1h-54.94c-1.22,0-2.23-.91-2.4-2.08-.02-.12-.04-.24-.04-.37,0-12.9.05-25.18-.04-37.46-.02-2.71.93-3.89,2.88-4.27.55-.11,1.16-.16,1.87-.15,10.22.08,20.44.06,30.66-.14,14.6-.28,29.2-.89,43.8-1.11,12.15-.18,24.32-.06,37-.05.84,0,1.65,0,2.49,0v156.69c0,.12.02.24.04.36.17,1.18,1.18,2.08,2.4,2.08h8.73c1.35,0,2.44-1.09,2.44-2.44,0-2.35,0-4.32,0-6.29.1-47.78.19-95.56.28-143.33,0-2.69.01-4.45.33-5.62.61-2.26,2.37-2.28,7.61-2.28,11.66,0,23.31,0,34.92,0v.02h7.22c.95.95,1.49,1.49,2.44,2.44,0,22.49-.01,44.99,0,67.48.03,28.57.05,57.14.25,85.71,0,1.06.37,2.56.87,3.76.44,1.06.99,1.89,1.5,1.96,3.75.55,7.61.37,11.88.3,1.33-.02,2.4-1.11,2.4-2.44v-72.13c0-1.65,1.6-2.83,3.17-2.33,6.38,2.03,20.8,7.03,28.77,12.97.77.57,1.5,1.15,2.13,1.74,10.75,9.96,20.39,21.12,30.98,31.26,2.17,2.08,4.38,4.08,6.63,6,18.07,15.42,38.75,25.38,63.63,25.42,19.51.03,39.02-.6,58.52-.99,12.7-.26,13.35-.31,11.28-12.47-.2-1.18-1.23-2.06-2.43-2.06Z"/>
      <path class="cls-1" d="m768.43,31.32h-10.28v14.69c0,2.01,1.63,3.64,3.64,3.64h13.24v-11.73c0-3.65-2.96-6.6-6.6-6.6Z"/>
      <path class="cls-1" d="m102.6,108.02c7.02.89,12.5,7.07,12.6,14.39.09,6.01,0,12.03.04,18.04.02,2.44,1.35,3.86,3.44,3.91,2.2.06,3.57-1.39,3.58-3.97.03-6.17.11-12.34-.04-18.51-.32-13.35-13.14-23.4-26.19-20.65-10.67,2.25-17.71,10.98-17.75,22.22-.05,18.59-.02,37.18-.02,55.77v2.68H27.08v-2.85c0-22.1,0-44.21,0-66.31,0-.86.06-1.74-.1-2.57-.51-2.59-3.8-3.88-5.61-2.01-.88.91-1.28,2.63-1.28,3.99-.07,23.98-.06,47.96-.05,71.94,0,3.95,1.03,4.98,4.99,4.98,18.27,0,36.55,0,54.82,0,4.64,0,5.5-.84,5.5-5.4,0-19.76-.02-39.52.03-59.28,0-1.93.15-3.93.65-5.79,1.97-7.27,8.82-11.57,16.58-10.58Z"/>
      <path class="cls-1" d="m187.11,72.12c-28.59-22.87-57.15-45.78-85.71-68.68-3.24-2.6-3.77-2.6-7.04.02-18.63,14.95-37.27,29.89-55.91,44.83-10.11,8.11-20.21,16.22-30.34,24.31-4.5,3.6-7.04,8.16-6.55,14,.48,5.65,3.3,9.91,8.59,12.16,5.39,2.29,10.25.77,14.62-2.71,12.51-9.98,24.99-19.99,37.48-29.99,11.82-9.46,23.63-18.93,35.6-28.52.8.61,1.43,1.07,2.04,1.55,20.72,16.59,41.29,33.36,62.25,49.65,4.92,3.82,7.52,7.58,6.65,13.89-.55,3.98-.16,8.11-.07,12.17.05,2.39,1.48,3.71,3.66,3.65,2.11-.06,3.32-1.3,3.35-3.67.06-4.37.02-8.75.03-13.12,0-.82,0-1.64,0-2.63.72.13,1.1.18,1.46.27,7.88,1.85,15.26-2.92,16.75-10.88,1.3-6.92-1.57-12.07-6.85-16.3Zm-3.61,19.72c-2.72,1.44-5.36.78-7.66-1.02-4.98-3.89-9.9-7.87-14.84-11.82-19.87-15.91-39.73-31.82-59.6-47.73-3.01-2.41-4-2.4-7.12.1-24.5,19.61-49,39.23-73.51,58.84-3.8,3.04-6.7,3.26-9.69.8-3.27-2.69-3.85-6.53-1.38-9.99.85-1.18,1.96-2.22,3.11-3.14,27.76-22.29,55.56-44.54,83.3-66.84,1.34-1.08,2.16-1.13,3.54-.02,27.87,22.41,55.78,44.76,83.68,67.12,2.33,1.87,4.15,4.03,4.14,7.6-.12,2.54-1.45,4.76-3.98,6.1Z"/>
      <path class="cls-1" d="m180.65,125.51c-5.31-.02-10.62,0-15.93,0s-10.62-.13-15.92.08c-1.54.06-3.43.75-4.5,1.81-15.16,14.99-30.2,30.09-45.27,45.17-2.59,2.6-2.57,4.05.08,6.7,10.82,10.83,21.63,21.65,32.46,32.47,2.48,2.48,4.11,2.52,6.56.07,15.13-15.12,30.27-30.24,45.32-45.44.98-.99,1.73-2.7,1.75-4.08.14-10.77.09-21.55.07-32.33,0-3.25-1.26-4.43-4.61-4.44Zm-8.73,42.78c-11.99,11.28-23.41,23.16-35.04,34.81-.6.6-1.03,1.38-1.41,1.89-9.98-10-19.61-19.65-29.37-29.42.21-.23.7-.79,1.23-1.32,13.41-13.41,26.8-26.84,40.27-40.19.82-.81,2.24-1.43,3.38-1.44,8.97-.12,17.93-.06,27.25-.06,0,6.93-.44,13.59.13,20.16.57,6.56-1.65,11.08-6.43,15.58Z"/>
      <path class="cls-1" d="m160.31,139.02c-6.28-.02-11.48,5.18-11.47,11.46.01,6.15,5.12,11.35,11.27,11.47,6.16.13,11.52-5.15,11.57-11.4.05-6.29-5.1-11.52-11.38-11.53Zm-.04,15.88c-2.4,0-4.42-2.13-4.34-4.57.08-2.42,1.96-4.25,4.36-4.25,2.47,0,4.42,2.03,4.35,4.51-.07,2.35-2.06,4.31-4.37,4.31Z"/>
    </g>
  </g>
</svg>